<?xml version="1.0" encoding="utf-8"?>
<!-- Generator: Adobe Illustrator 17.0.0, SVG Export Plug-In . SVG Version: 6.00 Build 0)  -->
<!DOCTYPE svg PUBLIC "-//W3C//DTD SVG 1.1//EN" "http://www.w3.org/Graphics/SVG/1.1/DTD/svg11.dtd">
<svg version="1.1" id="Слой_1" xmlns="http://www.w3.org/2000/svg" xmlns:xlink="http://www.w3.org/1999/xlink" x="0px" y="0px"
	 width="283.917px" height="285.201px" viewBox="0 0 283.917 285.201" enable-background="new 0 0 283.917 285.201"
	 xml:space="preserve">
<g>
	<g>
		<path fill="#ffffff" d="M274.128,241.991l-61.84-61.858c11.286-17.379,17.852-38.094,17.852-60.316c0-61.232-49.798-111.045-111.009-111.045
			C57.926,8.772,8.129,58.585,8.129,119.817c0,61.222,49.797,111.034,111.003,111.034c22.26,0,43.006-6.593,60.401-17.921
			l61.823,61.84c1.106,1.108,2.557,1.658,4.004,1.658c1.447,0,2.898-0.55,4.005-1.658l24.764-24.77
			c1.061-1.066,1.66-2.503,1.66-4.005C275.788,244.493,275.189,243.054,274.128,241.991z M19.456,119.817
			c0-54.985,44.714-99.712,99.676-99.712c54.968,0,99.682,44.726,99.682,99.712c0,54.977-44.714,99.704-99.682,99.704
			C64.17,219.521,19.456,174.794,19.456,119.817z M245.36,262.758l-55.504-55.52l17.029-16.489l55.236,55.247L245.36,262.758z"/>
	</g>
</g>
</svg>
