<?xml version="1.0" encoding="UTF-8" standalone="no"?>
<!-- Generator: Adobe Illustrator 17.0.0, SVG Export Plug-In . SVG Version: 6.00 Build 0)  -->

<svg
   xmlns:dc="http://purl.org/dc/elements/1.1/"
   xmlns:cc="http://creativecommons.org/ns#"
   xmlns:rdf="http://www.w3.org/1999/02/22-rdf-syntax-ns#"
   xmlns:svg="http://www.w3.org/2000/svg"
   xmlns="http://www.w3.org/2000/svg"
   xmlns:sodipodi="http://sodipodi.sourceforge.net/DTD/sodipodi-0.dtd"
   xmlns:inkscape="http://www.inkscape.org/namespaces/inkscape"
   version="1.1"
   id="Слой_1"
   x="0px"
   y="0px"
   width="283.917px"
   height="285.201px"
   viewBox="0 0 283.917 285.201"
   enable-background="new 0 0 283.917 285.201"
   xml:space="preserve"
   inkscape:version="0.91 r13725"
   sodipodi:docname="sort-desc.svg"><metadata
     id="metadata13"><rdf:RDF><cc:Work
         rdf:about=""><dc:format>image/svg+xml</dc:format><dc:type
           rdf:resource="http://purl.org/dc/dcmitype/StillImage" /></cc:Work></rdf:RDF></metadata><defs
     id="defs11" /><sodipodi:namedview
     pagecolor="#ffffff"
     bordercolor="#666666"
     borderopacity="1"
     objecttolerance="10"
     gridtolerance="10"
     guidetolerance="10"
     inkscape:pageopacity="0"
     inkscape:pageshadow="2"
     inkscape:window-width="640"
     inkscape:window-height="480"
     id="namedview9"
     showgrid="false"
     inkscape:zoom="0.82748661"
     inkscape:cx="141.9585"
     inkscape:cy="142.60049"
     inkscape:window-x="0"
     inkscape:window-y="0"
     inkscape:window-maximized="0"
     inkscape:current-layer="Слой_1" /><g
     id="g3"
     transform="matrix(-1,0,0,-1,285.064,285.201)"><g
       id="g5"><path
         d="m 7.426,258.426 140.475,0 0,-9.335 -140.475,0 0,9.335 z m 112.38,-65.352 -112.38,0 0,9.336 112.38,0 0,-9.336 z m -28.095,-56.014 -84.285,0 0,9.336 84.285,0 0,-9.336 z m -28.095,-56.016 -56.19,0 0,9.338 56.19,0 0,-9.338 z M 35.521,25.03 l -28.095,0 0,9.335 28.095,0 0,-9.335 z m 235.496,159.89 -57.561,57.382 0,-217.272 -9.366,0 0,217.272 -57.561,-57.382 -6.621,6.601 68.865,68.65 68.865,-68.65 -6.621,-6.601 z"
         id="path7"
         inkscape:connector-curvature="0"
         style="fill:#fff" /></g></g></svg>