<?xml version="1.0" encoding="utf-8"?>
<!-- Generator: Adobe Illustrator 17.0.0, SVG Export Plug-In . SVG Version: 6.00 Build 0)  -->
<!DOCTYPE svg PUBLIC "-//W3C//DTD SVG 1.1//EN" "http://www.w3.org/Graphics/SVG/1.1/DTD/svg11.dtd">
<svg version="1.1" id="Слой_1" xmlns="http://www.w3.org/2000/svg" xmlns:xlink="http://www.w3.org/1999/xlink" x="0px" y="0px"
	 width="283.917px" height="285.201px" viewBox="0 0 283.917 285.201" enable-background="new 0 0 283.917 285.201"
	 xml:space="preserve">
<g>
	<g>
		<path fill="#a6adb8" d="M261.372,45.55h-17.058v-8.528c0-9.399-7.651-17.052-17.06-17.052s-17.058,7.653-17.058,17.052v8.528H73.721v-8.528
			c0-9.399-7.65-17.052-17.058-17.052s-17.06,7.653-17.06,17.052v8.528H22.545c-9.383,0-17.06,7.672-17.06,17.052V250.18
			c0,9.379,7.677,17.052,17.06,17.052h238.827c9.383,0,17.06-7.672,17.06-17.052V62.602C278.432,53.222,270.755,45.55,261.372,45.55
			z M218.724,37.021c0-4.704,3.829-8.524,8.53-8.524c4.703,0,8.53,3.819,8.53,8.524v25.58c0,4.704-3.827,8.527-8.53,8.527
			c-4.701,0-8.53-3.823-8.53-8.527V37.021z M48.133,37.021c0-4.704,3.827-8.524,8.53-8.524c4.701,0,8.53,3.819,8.53,8.524v25.58
			c0,4.704-3.829,8.527-8.53,8.527c-4.703,0-8.53-3.823-8.53-8.527V37.021z M269.902,250.18c0,4.704-3.827,8.525-8.53,8.525H22.545
			c-4.703,0-8.53-3.821-8.53-8.525V105.232h255.887V250.18z M269.902,96.707H14.015V62.602c0-4.706,3.827-8.528,8.53-8.528h17.058
			v8.528c0,9.402,7.651,17.052,17.06,17.052s17.058-7.65,17.058-17.052v-8.528h136.474v8.528c0,9.402,7.65,17.052,17.058,17.052
			s17.06-7.65,17.06-17.052v-8.528h17.058c4.703,0,8.53,3.822,8.53,8.528V96.707z M240.049,137.205H43.87v89.527h196.179V137.205z
			 M90.781,218.206H52.398v-31.974h38.383V218.206z M90.781,177.704H52.398v-31.97h38.383V177.704z M137.694,218.206H99.311v-31.974
			h38.383V218.206z M137.694,177.704H99.311v-31.97h38.383V177.704z M184.606,218.206h-38.382v-31.974h38.382V218.206z
			 M184.606,177.704h-38.382v-31.97h38.382V177.704z M231.519,218.206h-38.383v-31.974h38.383V218.206z M231.519,177.704h-38.383
			v-31.97h38.383V177.704z"/>
	</g>
</g>
</svg>
