<?xml version="1.0" encoding="utf-8"?>
<!-- Generator: Adobe Illustrator 17.0.0, SVG Export Plug-In . SVG Version: 6.00 Build 0)  -->
<!DOCTYPE svg PUBLIC "-//W3C//DTD SVG 1.1//EN" "http://www.w3.org/Graphics/SVG/1.1/DTD/svg11.dtd">
<svg version="1.1" id="Слой_1" xmlns="http://www.w3.org/2000/svg" xmlns:xlink="http://www.w3.org/1999/xlink" x="0px" y="0px"
	 width="283.917px" height="285.201px" viewBox="0 0 283.917 285.201" enable-background="new 0 0 283.917 285.201"
	 xml:space="preserve">
<g>
	<g>
		<path d="M208.598,110.338l-0.012-0.06c-3.585-3.109-8.085-5.213-12.959-5.806c-3.523-0.413-6.75,2.074-7.196,5.63
			c-0.416,3.495,2.101,6.755,5.629,7.168c2.292,0.297,4.424,1.273,6.113,2.726c1.69,1.482,2.948,3.465,3.555,5.692
			c0.903,3.43,4.458,5.476,7.879,4.558c3.42-0.888,5.477-4.441,4.573-7.879C214.909,117.626,212.198,113.447,208.598,110.338z
			 M149.933,111.286c3.257-3.258,8.352-4.296,12.6-2.488c3.273,1.36,7.034-0.176,8.41-3.438c1.38-3.257-0.161-7.049-3.418-8.413
			c-9.08-3.82-19.739-1.777-26.714,5.216c-2.502,2.516-2.502,6.602,0,9.122C143.328,113.776,147.416,113.776,149.933,111.286z
			 M186.773,156.377c-6.575,2.282-13.637,2.43-20.167,0.652c-6.518-1.721-12.543-5.364-17.088-10.609
			c-2.327-2.663-6.381-2.96-9.062-0.65c-2.681,2.309-2.978,6.367-0.652,9.066c6.293,7.258,14.557,12.265,23.485,14.664
			c8.942,2.4,18.598,2.195,27.659-0.92c3.363-1.156,5.153-4.828,3.997-8.175C193.808,157.029,190.135,155.252,186.773,156.377z
			 M87.702,168.861c-2.548-2.548-6.681-2.548-9.214,0c-2.114,2.128-4.844,3.509-7.689,4.046c-2.848,0.571-5.874,0.301-8.602-0.837
			c-3.296-1.409-7.132,0.119-8.542,3.416c-1.393,3.3,0.151,7.14,3.447,8.575c5.214,2.189,10.88,2.699,16.199,1.649
			c5.349-1.047,10.416-3.627,14.4-7.645C90.253,175.548,90.253,171.41,87.702,168.861z M123.611,206.25
			c-12.783-1.741-25.913,1.768-36.056,9.683c-2.817,2.189-3.327,6.297-1.111,9.145c2.204,2.821,6.294,3.298,9.112,1.111
			c7.345-5.728,17.009-8.306,26.256-7.049c3.568,0.511,6.863-1.975,7.341-5.545C129.635,210.026,127.161,206.728,123.611,206.25z
			 M270.375,66.791c-9.573,0.222-19.335-0.077-28.919-0.875l-0.255-0.017c-16.064-1.414-32.198-4.279-47.97-8.523
			c-15.774-4.213-31.244-9.861-45.981-16.79c-8.812-4.134-17.417-8.727-25.573-13.647l-6.318-3.814l-1.527,7.223
			c-6.532,30.847-9.411,58.516-8.609,82.722c-24.997,7.587-50.596,11.434-76.094,11.434c-5.291,0-10.632-0.169-15.876-0.505
			l-7.394-0.474l2.008,7.137c19.301,68.653,45.762,101.09,64.561,116.208l1.208,0.957l0.047,0.005
			c10.892,8.446,21.825,13.182,32.554,14.081c1.063,0.08,2.12,0.122,3.17,0.122c0.002,0,0.002,0,0.002,0
			c9.13,0,19.547-3.849,25.53-8.96c5.984-5.11,9.421-9.403,9.421-9.403c7.247-9.039,13.019-21.095,16.986-35.599
			c0.976,0.063,1.958,0.097,2.946,0.097c0.002,0,0.002,0,0.002,0c7.581,0,15.494-1.917,23.529-5.703
			c34.88-16.514,66.013-62.259,87.663-128.805l2.293-7.042L270.375,66.791z M128.486,244.777l-0.623,0.486
			c-5.629,4.162-11.833,6.273-18.457,6.273c-0.787-0.003-1.581-0.031-2.335-0.089c-8.844-0.742-18.539-5.156-28.039-12.767
			l-1.064-0.842c-23.31-19.32-43.732-55.658-57.953-102.992c28.567,1,57.184-2.663,85.16-10.809
			c0.765,6.492,1.831,12.731,3.166,18.531c1.035,5.438,2.328,10.621,3.868,15.54c-0.295-0.102-0.588-0.213-0.877-0.335
			c-3.29-1.399-7.133,0.119-8.551,3.429c-1.379,3.292,0.158,7.136,3.449,8.574c3.633,1.522,7.485,2.215,11.285,2.148
			c2.309,4.981,4.93,9.604,7.865,13.842c5.802,8.363,12.664,14.486,20.4,18.21l0.019,0.01c1.608,1.079,3.26,2.089,4.946,3.023
			C145.771,224.276,138.118,237.284,128.486,244.777z M183.341,192.971c-6.616,3.119-13.023,4.696-19.047,4.696
			c-4.662,0-9.134-0.956-13.294-2.841c-7.16-4.954-13.458-11.681-18.745-20.037c-0.836-1.295-1.614-2.746-2.441-4.283
			c-0.691-1.291-1.394-2.599-2.161-3.89c-2.065-3.478-4.601-10.737-5.425-13.31c-1.376-4.092-2.593-8.428-3.576-12.7
			c-5.093-26.765-3.705-61.541,3.994-100.935c6.524,3.706,13.273,7.199,20.142,10.42c15.297,7.191,31.359,13.053,47.726,17.426
			c16.419,4.418,33.233,7.4,49.975,8.859l0.312,0.022c7.412,0.61,14.932,0.935,22.379,0.96
			C242.823,136.548,213.924,178.492,183.341,192.971z"/>
	</g>
</g>
</svg>
