<?xml version="1.0" encoding="utf-8"?>
<!-- Generator: Adobe Illustrator 17.0.0, SVG Export Plug-In . SVG Version: 6.00 Build 0)  -->
<!DOCTYPE svg PUBLIC "-//W3C//DTD SVG 1.1//EN" "http://www.w3.org/Graphics/SVG/1.1/DTD/svg11.dtd">
<svg version="1.1" id="Слой_1" xmlns="http://www.w3.org/2000/svg" xmlns:xlink="http://www.w3.org/1999/xlink" x="0px" y="0px"
	 width="283.917px" height="285.201px" viewBox="0 0 283.917 285.201" enable-background="new 0 0 283.917 285.201"
	 xml:space="preserve">
<path d="M277.593,267.685H6.751c-2.945,0-5.334-2.386-5.334-5.332c0-2.943,2.39-5.331,5.334-5.331h270.842
	c2.944,0,5.335,2.388,5.335,5.331C282.928,265.299,280.537,267.685,277.593,267.685z M263.601,246.47H20.747
	c-2.946,0-5.335-2.39-5.335-5.336c0-2.943,2.39-5.331,5.335-5.331h242.854c2.943,0,5.334,2.388,5.334,5.331
	C268.934,244.08,266.544,246.47,263.601,246.47z M230.884,225.257c-0.093,0-0.188,0-0.278-0.005h-27.435
	c-0.18,0.014-0.377,0.014-0.558,0H154.35c-0.18,0.014-0.377,0.014-0.557,0h-27.435c-0.18,0.014-0.375,0.014-0.557,0H77.538
	c-0.182,0.014-0.377,0.014-0.557,0H49.545c-0.181,0.014-0.376,0.014-0.556,0H33.292c-2.943,0-5.334-2.389-5.334-5.335
	s2.391-5.335,5.334-5.335h10.64v-105.84H27.18c-2.943,0-5.335-2.386-5.335-5.334c0-2.944,2.392-5.332,5.335-5.332h229.985
	c2.946,0,5.335,2.388,5.335,5.332c0,2.947-2.389,5.334-5.335,5.334h-20.946v105.84h14.83c2.944,0,5.336,2.389,5.336,5.335
	s-2.392,5.335-5.336,5.335h-19.886C231.073,225.257,230.978,225.257,230.884,225.257z M208.227,214.582h17.323v-105.84h-17.323
	V214.582z M159.406,214.582h38.152v-105.84h-38.152V214.582z M131.414,214.582h17.324v-105.84h-17.324V214.582z M82.594,214.582
	h38.151v-105.84H82.594V214.582z M54.602,214.582h17.324v-105.84H54.602V214.582z M254.671,90.043H29.669
	c-2.449,0-4.583-1.665-5.175-4.044c-0.593-2.374,0.509-4.849,2.673-6.001l112.501-59.853c1.561-0.839,3.441-0.839,5.004,0
	l112.501,59.853c2.163,1.152,3.265,3.627,2.672,6.001C259.253,88.378,257.12,90.043,254.671,90.043z M51.054,79.377h182.232
	L142.17,30.898L51.054,79.377z"/>
</svg>
