<?xml version="1.0" encoding="utf-8"?>
<!-- Generator: Adobe Illustrator 17.0.0, SVG Export Plug-In . SVG Version: 6.00 Build 0)  -->
<!DOCTYPE svg PUBLIC "-//W3C//DTD SVG 1.1//EN" "http://www.w3.org/Graphics/SVG/1.1/DTD/svg11.dtd">
<svg version="1.1" id="Слой_1" xmlns="http://www.w3.org/2000/svg" xmlns:xlink="http://www.w3.org/1999/xlink" x="0px" y="0px"
	 width="283.917px" height="285.201px" viewBox="0 0 283.917 285.201" enable-background="new 0 0 283.917 285.201"
	 xml:space="preserve">
<g>
	<g>
		<path d="M231.163,170.823l48.717-16.245l-26.092-78.568L205.07,92.272l1.358,4.088l-22.964,7.658l-24.984-5.53l-3.314-10.499
			l-25.251-2.612l-12.198-1.048l-27.772,9.27l1.336-4.024l-57.94-19.334l-29.304,88.24l57.946,19.331l3.001-9.039
			c0.076,0.061,0.156,0.118,0.233,0.177c0.096,0.413,0.209,0.824,0.344,1.232c1.125,3.383,3.498,6.123,6.678,7.712
			c1.84,0.923,3.895,1.409,5.945,1.409c1.674,0,3.29-0.312,4.788-0.885l2.858,1.431c0.989,3.473,3.352,6.54,6.815,8.278
			c1.845,0.929,3.906,1.421,5.963,1.421c1.672,0,3.287-0.313,4.784-0.888l2.063,1.034c0.053,0.185,0.093,0.371,0.154,0.555
			c1.121,3.39,3.494,6.14,6.677,7.737c1.841,0.927,3.899,1.415,5.952,1.415h0.001c1.673,0,3.288-0.312,4.786-0.886l2.083,1.043
			c0.991,3.474,3.358,6.543,6.825,8.286c1.837,0.918,3.89,1.403,5.937,1.403c0,0,0,0,0.001,0c1.833,0,3.597-0.373,5.213-1.056
			l10.675,5.34c1.881,0.948,3.914,1.431,5.96,1.431c1.409,0,2.824-0.228,4.199-0.685c3.372-1.122,6.109-3.493,7.71-6.685
			c0.926-1.857,1.385-3.879,1.393-5.895l0.409,0.205c6.568,3.281,14.575,0.609,17.861-5.966c0.946-1.907,1.394-3.937,1.395-5.936
			c2.997,1.295,6.327,1.433,9.456,0.393c3.379-1.128,6.113-3.501,7.695-6.681c0.992-1.98,1.468-4.127,1.418-6.28
			c2.403,0.591,4.928,0.501,7.34-0.302c3.384-1.122,6.128-3.502,7.721-6.696c1.591-3.182,1.847-6.799,0.725-10.183
			c-0.206-0.622-0.469-1.213-0.756-1.789l0.694-0.231L231.163,170.823z M56.219,166.269l-40.666-13.563l23.552-70.924l40.659,13.567
			L56.219,166.269z M85.04,161.67l-3.086,6.182c-0.113,0.227-0.252,0.435-0.402,0.632c-0.032,0.042-0.064,0.083-0.098,0.124
			c-1.205,1.459-3.37,2.009-5.148,1.118c-1.003-0.502-1.749-1.364-2.104-2.43c-0.157-0.471-0.214-0.955-0.203-1.436
			c0.002-0.095,0.001-0.191,0.009-0.285c0.02-0.212,0.057-0.423,0.109-0.631c0.016-0.065,0.035-0.13,0.054-0.194
			c0.07-0.232,0.152-0.462,0.263-0.683l3.082-6.171c0.112-0.226,0.249-0.433,0.395-0.631c0.04-0.054,0.083-0.106,0.126-0.158
			c0.129-0.158,0.268-0.306,0.417-0.442c0.032-0.03,0.062-0.063,0.096-0.091c0.188-0.161,0.391-0.304,0.606-0.43
			c0.035-0.02,0.071-0.037,0.106-0.056c0.192-0.104,0.393-0.194,0.602-0.269c0.048-0.017,0.095-0.037,0.144-0.052
			c0.157-0.05,0.316-0.086,0.476-0.117c0.053-0.01,0.104-0.025,0.157-0.033c0.204-0.031,0.408-0.048,0.613-0.049
			c0.009,0,0.017-0.002,0.026-0.002c0.647,0,1.29,0.152,1.888,0.453C85.237,157.059,86.078,159.593,85.04,161.67z M109.665,163.497
			l-7.294,14.589c-0.124,0.249-0.273,0.479-0.44,0.693c-0.005,0.007-0.011,0.014-0.016,0.021c-1.197,1.506-3.378,2.077-5.185,1.169
			c-1.294-0.649-2.108-1.883-2.286-3.223l-0.001-0.016c-0.026-0.202-0.025-0.406-0.021-0.611c0.001-0.081-0.003-0.163,0.002-0.243
			c0.017-0.225,0.055-0.45,0.109-0.673c0.014-0.059,0.031-0.118,0.048-0.177c0.069-0.239,0.152-0.477,0.267-0.707l7.293-14.593
			c0.113-0.226,0.249-0.434,0.396-0.632c0.039-0.053,0.081-0.104,0.122-0.154c0.13-0.159,0.269-0.308,0.42-0.445
			c0.032-0.029,0.062-0.062,0.095-0.091c0.188-0.16,0.39-0.304,0.604-0.429c0.036-0.021,0.074-0.038,0.11-0.058
			c0.193-0.105,0.395-0.195,0.606-0.27c0.044-0.016,0.086-0.033,0.131-0.047c0.16-0.051,0.322-0.088,0.484-0.119
			c0.051-0.01,0.1-0.024,0.152-0.032c0.2-0.031,0.401-0.047,0.603-0.049c0.012,0,0.023-0.002,0.035-0.002
			c0.646,0,1.289,0.152,1.891,0.453c1,0.5,1.746,1.363,2.1,2.431C110.242,161.351,110.162,162.494,109.665,163.497z
			 M131.015,169.926l-9.008,18.017c0,0.001-0.001,0.001-0.001,0.002c-0.118,0.235-0.26,0.452-0.416,0.656
			c-0.019,0.026-0.039,0.051-0.059,0.076c-1.201,1.486-3.372,2.051-5.162,1.15c-1.01-0.509-1.761-1.378-2.116-2.45
			c-0.08-0.243-0.132-0.491-0.167-0.739l-0.021-0.296c-0.003-0.05-0.002-0.101-0.004-0.151c-0.01-0.208-0.002-0.414,0.02-0.619
			c0.021-0.175,0.048-0.35,0.091-0.522c0.016-0.066,0.034-0.131,0.054-0.196c0.07-0.233,0.153-0.463,0.265-0.685l8.995-18.024
			c0.091-0.182,0.194-0.354,0.306-0.517c0.035-0.051,0.077-0.094,0.114-0.143c0.083-0.11,0.166-0.221,0.258-0.321
			c0.025-0.027,0.054-0.049,0.079-0.075c0.113-0.115,0.227-0.228,0.351-0.328c0.003-0.002,0.006-0.004,0.009-0.006
			c0.599-0.483,1.318-0.792,2.072-0.897c0.191-0.026,0.385-0.04,0.582-0.04c0.002,0,0.005,0,0.007,0
			c0.321,0,0.636,0.038,0.944,0.111c0.013,0.003,0.026,0.008,0.039,0.011c0.302,0.075,0.598,0.181,0.883,0.324
			C131.203,165.305,132.048,167.849,131.015,169.926z M144.747,191.61l-3.095,6.182c-0.124,0.246-0.272,0.474-0.439,0.685
			c-0.005,0.006-0.009,0.012-0.014,0.018c-1.209,1.504-3.428,2.067-5.193,1.185c-1.294-0.65-2.109-1.885-2.289-3.226l-0.004-0.056
			c-0.022-0.183-0.021-0.368-0.019-0.554c0-0.099-0.002-0.199,0.005-0.297c0.018-0.216,0.053-0.431,0.104-0.644
			c0.015-0.063,0.032-0.125,0.05-0.187c0.069-0.238,0.152-0.475,0.266-0.705l3.082-6.171c0.113-0.226,0.249-0.434,0.397-0.632
			c0.038-0.051,0.078-0.1,0.118-0.149c0.134-0.164,0.278-0.318,0.434-0.459c0.027-0.024,0.051-0.051,0.078-0.074
			c0.192-0.164,0.399-0.311,0.619-0.438c0.027-0.016,0.056-0.029,0.084-0.044c0.201-0.111,0.414-0.205,0.634-0.283
			c0.039-0.014,0.077-0.03,0.117-0.042c0.167-0.053,0.335-0.092,0.505-0.124c0.047-0.009,0.092-0.022,0.14-0.029
			c0.207-0.032,0.414-0.049,0.622-0.05c0.007,0,0.014-0.001,0.021-0.001c0.645,0,1.285,0.151,1.879,0.45
			C144.929,187.001,145.778,189.538,144.747,191.61z M218.173,166.345c-0.504,1.012-1.373,1.766-2.445,2.121
			c-1.065,0.35-2.194,0.273-3.196-0.233l-30.207-15.154l-1.628,5.061c-0.134,0.415-0.271,0.835-0.444,1.25l-1.644,3.934
			l21.216,10.638c1.003,0.502,1.749,1.365,2.104,2.434c0.356,1.069,0.274,2.215-0.236,3.232c-0.499,1.001-1.36,1.749-2.428,2.104
			c-1.07,0.356-2.214,0.276-3.211-0.222l-21.381-10.735l-4.864,9.665l11.452,5.758c2.071,1.04,2.912,3.583,1.88,5.662
			c-1.034,2.075-3.568,2.91-5.644,1.877l-11.265-5.643l-2.145,3.712c-0.379,0.659-0.735,1.204-1.088,1.674l-2.091,2.783l2.13,2.755
			c0.991,1.284,1.165,3.047,0.449,4.483c-0.505,1.008-1.37,1.758-2.435,2.113c-1.063,0.35-2.199,0.269-3.211-0.241l-7.831-3.92
			l2.88-5.756c3.279-6.58,0.603-14.611-5.963-17.897c-0.435-0.219-0.88-0.404-1.329-0.572c-0.082-0.03-0.165-0.057-0.247-0.086
			c-0.405-0.143-0.815-0.265-1.229-0.368c-0.051-0.013-0.102-0.026-0.154-0.038c-0.976-0.228-1.969-0.346-2.967-0.347
			c-0.009,0-0.017-0.002-0.026-0.002c-0.059,0-0.117,0.005-0.177,0.006c-0.365,0.005-0.729,0.025-1.094,0.061
			c-0.229,0.021-0.457,0.044-0.683,0.077c-0.093,0.014-0.186,0.033-0.279,0.049c-0.307,0.051-0.611,0.113-0.912,0.185
			c-0.017,0.004-0.035,0.006-0.053,0.011l1.384-2.769c3.269-6.581,0.599-14.611-5.957-17.904c-0.421-0.211-0.849-0.388-1.28-0.551
			c-0.089-0.034-0.178-0.067-0.268-0.098c-0.442-0.156-0.886-0.293-1.334-0.399c-0.018-0.004-0.037-0.007-0.056-0.011
			c-0.429-0.1-0.859-0.173-1.29-0.229c-0.105-0.014-0.21-0.029-0.315-0.04c-0.424-0.045-0.849-0.071-1.272-0.075
			c-0.043,0-0.086-0.008-0.13-0.008c-0.223,0-0.443,0.012-0.664,0.023c-0.026,0.001-0.052,0.001-0.078,0.003
			c-2.945,0.161-5.682,1.271-7.855,3.112c-0.043-0.142-0.086-0.285-0.135-0.427c-1.124-3.387-3.496-6.126-6.666-7.71
			c-0.441-0.222-0.892-0.412-1.347-0.582c-0.105-0.039-0.212-0.069-0.317-0.105c-0.366-0.126-0.734-0.239-1.106-0.332
			c-0.115-0.029-0.23-0.052-0.345-0.077c-0.37-0.082-0.742-0.149-1.116-0.198c-0.119-0.016-0.238-0.031-0.357-0.044
			c-0.38-0.04-0.761-0.061-1.144-0.068c-0.076-0.001-0.152-0.013-0.228-0.013c-0.048,0-0.096,0.005-0.144,0.005
			c-0.157,0.002-0.314,0.009-0.472,0.016c-0.269,0.012-0.536,0.033-0.801,0.061c-0.103,0.011-0.206,0.019-0.308,0.032
			c-2.603,0.335-5.003,1.422-6.945,3.097c-0.044,0.038-0.087,0.078-0.13,0.116c-0.261,0.232-0.514,0.473-0.757,0.726
			c-0.047,0.049-0.096,0.096-0.143,0.146c-0.265,0.284-0.519,0.58-0.76,0.888c-0.05,0.064-0.096,0.131-0.145,0.196
			c-0.189,0.251-0.369,0.51-0.541,0.776c-0.06,0.093-0.121,0.186-0.179,0.281c-0.205,0.334-0.401,0.675-0.578,1.031l-0.041,0.082
			c-0.008-0.026-0.02-0.05-0.028-0.076c-0.064-0.197-0.144-0.389-0.218-0.583c-0.079-0.208-0.151-0.418-0.239-0.622
			c-0.083-0.191-0.182-0.374-0.273-0.561c-0.098-0.2-0.19-0.402-0.298-0.597c-0.103-0.185-0.222-0.362-0.333-0.543
			c-0.115-0.186-0.223-0.376-0.348-0.556c-0.124-0.179-0.263-0.348-0.396-0.522c-0.131-0.171-0.255-0.348-0.394-0.513
			c-0.146-0.172-0.307-0.332-0.462-0.498c-0.144-0.154-0.28-0.313-0.432-0.46c-0.173-0.168-0.362-0.321-0.546-0.48
			c-0.151-0.131-0.293-0.269-0.451-0.394c-0.216-0.171-0.449-0.325-0.678-0.484c-0.14-0.097-0.272-0.204-0.417-0.296
			c-0.381-0.243-0.778-0.47-1.191-0.677c-0.443-0.223-0.895-0.414-1.353-0.585c-0.099-0.037-0.2-0.065-0.3-0.099
			c-0.375-0.13-0.754-0.245-1.136-0.341c-0.101-0.025-0.203-0.046-0.305-0.068c-0.39-0.087-0.781-0.157-1.176-0.208
			c-0.099-0.013-0.197-0.026-0.296-0.036c-0.41-0.044-0.822-0.068-1.235-0.073c-0.056-0.001-0.112-0.01-0.168-0.01
			c-0.036,0-0.071,0.003-0.106,0.004c-0.189,0.002-0.378,0.01-0.567,0.02c-0.224,0.011-0.447,0.029-0.669,0.051
			c-0.14,0.014-0.279,0.025-0.418,0.044c-0.389,0.051-0.773,0.119-1.153,0.203c-0.021,0.005-0.041,0.011-0.062,0.015
			c-0.41,0.093-0.812,0.207-1.208,0.337c-0.008,0.003-0.017,0.004-0.025,0.007c-0.006,0.002-0.011,0.005-0.016,0.006
			c-1.642,0.546-3.153,1.404-4.457,2.53c-0.04,0.034-0.078,0.07-0.117,0.104c-0.268,0.237-0.528,0.486-0.777,0.746
			c-0.042,0.043-0.085,0.084-0.125,0.128c-0.268,0.287-0.525,0.586-0.769,0.899c-0.046,0.059-0.089,0.121-0.134,0.181
			c-0.018,0.024-0.035,0.048-0.053,0.072l15.729-47.371l32.461-10.83l10.262,0.878l12.859,1.288L135,97.175l-2.706,0.521
			l-20.46,4.229l-1.175,0.241l-0.142,0.031l-2.978,0.616l-0.009,0.042l0,0l-6.715,32.793l-0.725,4.313l4.22,1.069
			c0.187,0.055,0.378,0.104,0.666,0.17l4.967,1.017c9.267,1.892,18.359-3.092,22.028-11.473c0.022-0.05,0.049-0.096,0.071-0.145
			c0.206-0.481,0.38-0.981,0.549-1.483c0.044-0.131,0.101-0.254,0.143-0.386c0.135-0.429,0.235-0.875,0.342-1.318
			c0.052-0.216,0.121-0.423,0.167-0.642l11.51-1.203c2.112,2.441,4.624,4.62,7.43,6.48c0.019,0.013,0.038,0.028,0.056,0.041
			l0.435,0.285c0.067,0.043,0.132,0.088,0.199,0.13l0.289,0.189c0.447,0.276,0.888,0.549,1.493,0.882
			c0.46,0.267,0.93,0.521,1.252,0.677l0.456,0.219c0.465,0.234,0.935,0.459,1.411,0.676l0.26,0.124
			c0.387,0.178,0.772,0.346,1.233,0.538l0.593,0.228c0.106,0.042,0.212,0.082,0.318,0.123l0.708,0.273
			c0.157,0.057,0.318,0.11,0.478,0.163c0.182,0.064,0.366,0.123,0.549,0.185c0.255,0.09,0.502,0.175,0.725,0.244l0.254,0.074
			c0.28,0.086,0.563,0.166,0.846,0.247l0.745,0.217c0.053,0.013,0.106,0.025,0.159,0.038c0.538,0.141,1.079,0.273,1.625,0.393
			c0.082,0.018,0.165,0.032,0.248,0.049c0.432,0.095,0.853,0.178,1.256,0.25c0.09,0.017,0.181,0.033,0.271,0.049
			c0.022,0.004,0.046,0.009,0.068,0.012l0.322,0.056c0.394,0.064,0.771,0.122,1.128,0.174c0.018,0.003,0.037,0.005,0.055,0.008
			c0.127,0.018,0.263,0.039,0.38,0.054l0.235,0.031c0.288,0.036,0.578,0.062,0.868,0.094c0.079,0.008,0.159,0.018,0.238,0.026
			c0.218,0.022,0.436,0.051,0.653,0.07l0.419,0.029c0.168,0.01,0.337,0.022,0.507,0.029c0.002,0,0.003,0,0.005,0l43.378,21.763
			c1.001,0.504,1.749,1.369,2.104,2.442C218.755,164.201,218.675,165.342,218.173,166.345z M218.322,151.497l-29.582-14.837
			l-13.485-6.767l-0.006,0l-0.007-0.004l-0.774-0.025l-0.197-0.007c-1.441-0.054-2.9-0.208-4.353-0.453
			c-0.068-0.012-0.131-0.022-0.204-0.034c-0.493-0.084-0.977-0.174-1.47-0.287c-0.493-0.111-0.983-0.232-1.487-0.364
			c-0.171-0.046-0.339-0.098-0.508-0.146l-0.902-0.265c-0.19-0.06-0.377-0.125-0.565-0.188c-0.046-0.016-0.082-0.029-0.133-0.047
			l-1.868-0.686c-0.281-0.114-0.557-0.236-0.834-0.357c-0.026-0.012-0.057-0.025-0.082-0.036l-1.352-0.632
			c-0.019-0.009-0.039-0.018-0.057-0.028c-0.076-0.04-0.17-0.087-0.269-0.137c-0.134-0.069-0.264-0.141-0.397-0.212
			c-0.193-0.102-0.39-0.204-0.569-0.307l-0.18-0.097c-0.287-0.162-0.568-0.331-0.848-0.501l-0.333-0.208
			c-1.917-1.197-4.632-3.74-6.473-5.578c-0.354-0.425-0.698-0.856-1.018-1.299l-1.554-2.153l-19.643,2.181l-3.605,0.377
			l-1.245,6.549c-1.176,5.762-6.825,9.49-12.559,8.327l-1.117-0.229l4.61-22.504l21.713-4.452l7.281-1.402l7.893,1.747l9.514,2.112
			l-0.002-0.006l22.303,4.937l25.349-8.456l14.799,44.551L218.322,151.497z M216.586,98.047l31.438-10.493l20.34,61.246
			l-31.437,10.481L216.586,98.047z M42.376,153.895l9.106,3.042l2.879-8.658l-9.106-3.042L42.376,153.895z M249.209,148.793
			l-2.812-8.681l-7.83,2.55l2.812,8.68L249.209,148.793z"/>
	</g>
</g>
</svg>
