<?xml version="1.0" encoding="utf-8"?>
<!-- Generator: Adobe Illustrator 17.0.0, SVG Export Plug-In . SVG Version: 6.00 Build 0)  -->
<!DOCTYPE svg PUBLIC "-//W3C//DTD SVG 1.1//EN" "http://www.w3.org/Graphics/SVG/1.1/DTD/svg11.dtd">
<svg version="1.1" id="Слой_1" xmlns="http://www.w3.org/2000/svg" xmlns:xlink="http://www.w3.org/1999/xlink" x="0px" y="0px"
	 width="283.917px" height="285.201px" viewBox="0 0 283.917 285.201" enable-background="new 0 0 283.917 285.201"
	 xml:space="preserve">
<g>
	<g>
		<path d="M66.661,194.15V158.79l55.669-47.265c1.115-0.938,1.497-2.461,1.01-3.848c-0.523-1.352-1.81-2.253-3.273-2.253H99.846
			l22.63-22.267c1.368-1.346,1.381-3.539,0.028-4.901c-1.349-1.361-3.556-1.374-4.924-0.026L89.94,105.424H6.301
			c-1.462,0-2.785,0.901-3.273,2.253c-0.488,1.386-0.104,2.91,1.009,3.848L59.685,158.8l0.011,0.01v35.341H40.393
			c-1.915,0-3.483,1.526-3.483,3.466c0,1.906,1.568,3.466,3.483,3.466h37.191c-1.672-2.218-3.099-4.541-4.283-6.932H66.661z
			 M63.655,152.213l-0.027,0.025c-0.149-0.019-0.296-0.045-0.45-0.045c-0.161,0-0.315,0.026-0.47,0.047l-0.029-0.027
			c-0.035,0-0.035,0-0.035,0l-46.906-39.857h67.158l-4.938,4.858c-0.032,0.032-0.054,0.07-0.085,0.103
			c-0.004-0.001-0.007-0.003-0.011-0.005c-1.393-0.554-2.994-0.867-4.7-0.867c-2.577,0-5.223,0.658-7.627,1.977
			c-6.755,3.638-9.75,10.711-6.825,16.117c0.173,0.345,0.415,0.69,0.624,1.001l-4.222,4.155c-1.367,1.346-1.381,3.542-0.027,4.901
			c0.68,0.686,1.578,1.029,2.476,1.029c0.884,0,1.77-0.333,2.448-1.003l5.353-5.266c0.94,0.209,1.914,0.313,2.959,0.313
			c2.577,0,5.223-0.694,7.627-1.977c3.064-1.628,5.467-4.089,6.825-6.895c1.389-2.975,1.496-6.119,0.217-8.784l9.813-9.656h17.828
			l-46.941,39.857C63.689,152.213,63.689,152.213,63.655,152.213z M73.057,128.437c-1.707,0.936-4.005,0.866-4.422,0.105
			c-0.14-0.278-0.105-0.762,0.174-1.283c0.418-0.901,1.288-1.732,2.367-2.322c0.871-0.45,1.846-0.728,2.716-0.728
			c0.801,0,1.497,0.243,1.707,0.623C75.912,125.422,75.215,127.295,73.057,128.437z M279.718,63.516l-17.569-17.477
			c-1.664-1.655-4.358-1.655-6.022,0c-1.664,1.656-1.664,4.339,0,5.994l5.761,5.732l-3.385,3.37l-5.77-5.74
			c-1.664-1.655-4.359-1.655-6.024,0c-1.664,1.656-1.664,4.339,0,5.994l5.77,5.741l-4.015,3.996l-5.765-5.739
			c-1.664-1.655-4.359-1.655-6.022,0c-1.664,1.658-1.664,4.339,0,5.995l5.765,5.738l-43.603,43.402
			c-0.175-0.985-0.681-1.915-1.529-2.585c-17.314-13.685-40.636-13.827-54.253-0.289c-3.381,3.378-5.973,7.385-7.873,12.477
			c-1.136,4.902-6.231,6.012-14.741,6.218c-10.403,0.306-19.939,4.264-26.853,11.145c-16.596,16.509-14.487,45.494,4.7,64.62
			l12.736,12.667c0.01,0.01,0.022,0.016,0.032,0.026l1.794,1.787c10.12,10.086,23.516,15.864,36.755,15.872c0.003,0,0.003,0,0.003,0
			c10.919,0,20.917-3.975,28.146-11.178c6.934-6.895,10.914-16.393,11.23-27.388c0.203-7.815,1.314-12.892,6.758-14.181
			c4.572-1.716,8.606-4.307,11.992-7.694c13.701-13.627,13.501-36.924-0.465-54.206c-0.6-0.745-1.404-1.22-2.267-1.439
			l43.461-43.259l5.772,5.745c0.832,0.827,1.922,1.241,3.012,1.241s2.179-0.414,3.011-1.241c1.664-1.656,1.664-4.339,0-5.994
			l-5.772-5.745l4.016-3.998l5.773,5.744c0.832,0.827,1.921,1.24,3.012,1.24c1.089,0,2.179-0.413,3.012-1.24
			c1.664-1.658,1.664-4.341,0-5.997l-5.773-5.743l3.385-3.369l5.781,5.752c0.831,0.828,1.921,1.242,3.011,1.242
			c1.09,0,2.18-0.414,3.012-1.242C281.382,67.855,281.382,65.173,279.718,63.516z M201.707,176.036
			c-2.529,2.524-5.544,4.461-8.423,5.578c-12.307,2.834-12.661,16.301-12.831,22.695c-0.237,8.286-3.252,15.54-8.718,20.98
			c-5.628,5.605-13.48,8.693-22.123,8.693h-0.003c-10.994-0.009-22.194-4.885-30.729-13.388l-12.719-12.667
			c-0.033-0.033-0.072-0.055-0.106-0.086l-1.737-1.728c-15.872-15.814-17.98-39.426-4.704-52.632
			c5.448-5.422,12.736-8.42,21.694-8.676c5.787-0.142,19.328-0.48,22.008-12.219c1.301-3.413,3.243-6.425,5.768-8.943
			c10.544-10.473,28.999-10.076,42.928,0.936c0.575,0.457,1.235,0.72,1.911,0.838l-24.786,24.672
			c-2.431-1.375-5.142-2.079-7.859-2.079c-4.083,0-8.176,1.557-11.279,4.66c-5.2,5.17-6.056,13.004-2.601,19.058l-9.96,9.914
			l-5.764-5.737c-1.665-1.658-4.36-1.658-6.023,0c-1.664,1.655-1.664,4.338,0,5.993l17.552,17.47
			c0.831,0.828,1.922,1.242,3.012,1.242c1.09,0,2.179-0.414,3.01-1.242c1.664-1.656,1.664-4.338,0-5.994l-5.764-5.737l9.959-9.912
			c2.43,1.375,5.144,2.08,7.859,2.08c4.084,0,8.169-1.558,11.282-4.663c5.193-5.154,6.047-12.986,2.595-19.052l24.68-24.565
			c0.146,0.571,0.405,1.121,0.799,1.609C211.867,147.022,212.333,165.461,201.707,176.036z"/>
	</g>
</g>
</svg>
