<?xml version="1.0" encoding="utf-8"?>
<!-- Generator: Adobe Illustrator 17.0.0, SVG Export Plug-In . SVG Version: 6.00 Build 0)  -->
<!DOCTYPE svg PUBLIC "-//W3C//DTD SVG 1.1//EN" "http://www.w3.org/Graphics/SVG/1.1/DTD/svg11.dtd">
<svg version="1.1" id="Слой_1" xmlns="http://www.w3.org/2000/svg" xmlns:xlink="http://www.w3.org/1999/xlink" x="0px" y="0px"
	 width="283.917px" height="285.201px" viewBox="0 0 283.917 285.201" enable-background="new 0 0 283.917 285.201"
	 xml:space="preserve">
<g>
	<g>
		<path d="M280.112,44.571c-0.717-0.614-1.687-0.844-2.615-0.656c-0.295,0.042-28.789,6.19-28.789,46.768
			c0,26.13,8.605,50.909,10.123,55.049v93.513c0,1.752,1.413,3.169,3.163,3.169h16.114c1.75,0,3.163-1.417,3.163-3.169v-94.063
			V47.022C281.272,46.072,280.85,45.184,280.112,44.571z M274.945,236.078h-9.787v-87.726h9.787V236.078z M274.945,142.014h-10.714
			c-2.278-6.697-9.196-28.813-9.196-51.33c0-26.826,13.203-36.204,19.911-39.225V142.014z M51.36,86.142V45.923
			c0-1.752-1.434-3.168-3.163-3.168c-1.751,0-3.164,1.415-3.164,3.168V75.96h-7.983V45.913c0-1.749-1.416-3.168-3.163-3.168
			s-3.163,1.42-3.163,3.168V75.96h-7.735V45.913c0-1.749-1.416-3.168-3.164-3.168c-1.747,0-3.164,1.42-3.164,3.168V75.96H8.693
			V45.923c0-1.752-1.435-3.168-3.164-3.168c-1.751,0-3.163,1.415-3.163,3.168v40.219c0,13.245,8.605,22.793,21.323,24.145
			c0,0,0,0,0.001,0v31.727h-4.894c-1.75,0-3.164,1.417-3.164,3.169v94.063c0,1.752,1.413,3.169,3.164,3.169h16.113
			c1.75,0,3.163-1.417,3.163-3.169v-94.063c0-1.752-1.413-3.169-3.163-3.169h-4.892v-31.727
			C42.734,108.935,51.36,99.387,51.36,86.142z M31.745,148.351v87.726h-9.786v-87.726h4.856c0.013,0,0.025,0.004,0.037,0.004
			s0.025-0.004,0.037-0.004H31.745z M26.852,104.118c-12.55,0-18.159-9.041-18.159-17.976v-3.844h36.34v3.844
			C45.032,95.078,39.401,104.118,26.852,104.118z M147.555,44.339c-53.718,0-97.419,43.766-97.419,97.569
			c0,53.801,43.7,97.569,97.419,97.569c53.718,0,97.419-43.768,97.419-97.569C244.974,88.106,201.273,44.339,147.555,44.339z
			 M147.555,233.14c-50.217,0-91.091-40.937-91.091-91.231c0-50.295,40.874-91.233,91.091-91.233
			c50.218,0,91.092,40.938,91.092,91.233C238.647,192.203,197.773,233.14,147.555,233.14z M147.555,80.503
			c-33.808,0-61.311,27.544-61.311,61.405c0,33.861,27.503,61.407,61.311,61.407c33.809,0,61.312-27.545,61.312-61.407
			C208.867,108.047,181.364,80.503,147.555,80.503z M147.555,196.978c-30.328,0-54.984-24.694-54.984-55.069
			s24.656-55.068,54.984-55.068c30.329,0,54.984,24.693,54.984,55.068S177.885,196.978,147.555,196.978z"/>
	</g>
</g>
</svg>
