<?xml version="1.0" encoding="utf-8"?>
<!-- Generator: Adobe Illustrator 17.0.0, SVG Export Plug-In . SVG Version: 6.00 Build 0)  -->
<!DOCTYPE svg PUBLIC "-//W3C//DTD SVG 1.1//EN" "http://www.w3.org/Graphics/SVG/1.1/DTD/svg11.dtd">
<svg version="1.1" id="Слой_1" xmlns="http://www.w3.org/2000/svg" xmlns:xlink="http://www.w3.org/1999/xlink" x="0px" y="0px"
	 width="283.917px" height="285.201px" viewBox="0 0 283.917 285.201" enable-background="new 0 0 283.917 285.201"
	 xml:space="preserve">
<g>
	<g>
		<path d="M258.964,128.605l-6.082-106.261c0.222-5.874-2.744-11.079-7.863-13.979c-5.34-2.901-11.793-2.604-16.838,0.816
			c-4.301,2.826-10.977,10.411-9.272,28.63c-10.014-7.883-22.326-12.27-35.529-12.27c-18.544,0-37.68,13.384-49.029,28.851
			c-11.721-15.467-31.006-28.851-49.55-28.851c-24.477,0-45.616,15.318-55.111,40.08c-11.202,29.223-2.522,62.388,21.807,84.398
			l55.779,53.837c7.714,31.008,31.227,72.502,32.341,74.435c0.073,0.151,0.148,0.298,0.371,0.447
			c0.222,0.372,0.519,0.669,0.89,0.967c0.372,0.372,0.89,0.669,1.41,0.892c0.593,0.224,1.26,0.372,1.927,0.372
			c0.593,0,1.188-0.074,1.707-0.298c0.37-0.074,0.667-0.223,0.963-0.372c0.149-0.074,0.223-0.149,0.298-0.223
			c0.444-0.298,0.815-0.593,1.112-0.967c0.074-0.074,0.147-0.147,0.147-0.223c0.298-0.298,0.52-0.669,0.669-1.116
			c0.148-0.223,0.223-0.521,0.296-0.745c12.907-31.75,53.554-73.765,80.257-88.934C247.467,177.98,260.299,151.88,258.964,128.605z
			 M42.745,70.678c7.343-19.185,23.512-31.156,42.056-31.156c16.393,0,35.678,16.134,43.393,31.156
			c1.186,2.379,3.56,3.867,6.229,3.867c2.671-0.075,5.044-1.563,6.231-3.942c7.418-15.02,26.407-31.081,42.725-31.081
			c13.574,0,25.887,6.17,34.566,16.73l-2.003,29.298c-6.083-1.786-12.536,0.595-15.8,5.8c-4.079,6.469-7.194,11.823-9.791,16.359
			c-9.939,17.177-12.609,21.786-39.089,33.834l-25.442,11.6c-6.973,3.198-18.47,12.937-20.546,29.298l-44.208-42.684
			C36.514,117.599,35.55,89.566,42.745,70.678z M224.399,178.724c-26.184,14.947-63.642,52.572-80.553,84.994
			c-5.415-10.188-14.093-27.512-20.399-44.319c-3.56-9.37-6.378-18.591-7.492-26.325c0-0.149,0-0.224-0.074-0.369
			c-2.745-21.344,14.242-29.747,14.39-29.82l25.442-11.6c29.595-13.46,33.452-20.226,43.837-38.221
			c2.595-4.462,5.637-9.666,9.643-15.989c0.741-1.261,2.744-1.783,4.302-1.188c2.671,0.967,2.595,4.61,2.225,7.064
			c-2.595,33.834-15.725,47.887-46.062,68.335c-2.449,1.638-3.115,4.981-1.485,7.437c0.223,0.296,0.446,0.594,0.743,0.818
			c1.779,1.783,4.598,2.008,6.675,0.593c24.181-16.285,42.428-30.785,48.733-61.497c0.964-4.461,1.632-9.293,2.003-14.573
			c0.519-3.644,0.222-6.691-0.667-9.294c0.296-0.596,0.444-1.263,0.519-1.934l1.261-18.739l1.706-26.174l0.593-8.478
			c0.074-0.296,0-0.669,0-0.966c-1.26-10.113,0.372-17.774,4.376-20.45c2.078-1.412,4.302-1.041,5.712-0.298
			c0.89,0.521,2.447,1.786,2.374,4.758l6.082,106.782C249.543,150.69,236.859,171.66,224.399,178.724z"/>
	</g>
</g>
</svg>
