<svg xmlns="http://www.w3.org/2000/svg" width="88.125" height="104" viewBox="0 0 88.125 104">
  <defs>
    <style>
      .cls-1 {
        fill-rule: evenodd;
      }
    </style>
  </defs>
  <path class="cls-1" d="M159.284,420.34a2.561,2.561,0,1,1-4.983-1.188c1.425-5.978.677-11.225-2-14.036-1.785-1.872-4.326-2.511-7.552-1.9-6.411,1.209-10.5,6.748-15.226,13.162-3.961,5.369-8.45,11.455-15.039,15.531a39.96,39.96,0,0,1-20.8,6.1q-1,0-2-.057c-7.7-.444-14.047-3.514-17.415-8.425-4.253-6.2-1.812-12.651,1.5-17.055L73.186,409a6,6,0,0,1,1.136-8.314l16.729-12.9a5.92,5.92,0,0,1,3.644-1.244,6.006,6.006,0,0,1,4.787,2.4l6.171,8.248c4.916-2.216,10.539-5.975,16.638-12.166,6.164-6.257,9.861-12.005,12.032-16.961l-8.236-6.349a6,6,0,0,1-1.136-8.315l12.72-17A6.008,6.008,0,0,1,142.458,334a5.918,5.918,0,0,1,3.644,1.243l9.627,7.421c0.012,0.01.021,0.022,0.034,0.032a2.253,2.253,0,0,1,.207.2,2.483,2.483,0,0,1,.174.182c0.035,0.044.065,0.092,0.1,0.138a2.46,2.46,0,0,1,.19.3c0.013,0.025.022,0.051,0.034,0.075a2.61,2.61,0,0,1,.158.412l0,0.009c0.244,0.9,5.617,22.279-23.534,51.87-20.95,21.265-37.788,24.441-45.96,24.441h0a20.756,20.756,0,0,1-5.218-.541,0.112,0.112,0,0,0-.015-0.006,2.565,2.565,0,0,1-.39-0.153c-0.036-.017-0.073-0.031-0.108-0.05a2.657,2.657,0,0,1-.271-0.175c-0.056-.039-0.113-0.077-0.165-0.121s-0.114-.108-0.17-0.164A2.5,2.5,0,0,1,80.6,418.9c-0.012-.015-0.027-0.026-0.038-0.042L79,416.774c-1.727,2.695-2.919,6.324-.5,9.842,4.893,7.131,20.169,9.044,33.289.927,5.748-3.555,9.745-8.974,13.611-14.215,5.148-6.979,10.01-13.572,18.4-15.154,4.9-.924,9.237.285,12.21,3.405C159.89,405.653,161.115,412.666,159.284,420.34Z" transform="translate(-72 -334)"/>
</svg>
