<svg xmlns="http://www.w3.org/2000/svg" width="84" height="113" viewBox="0 0 84 113">
  <defs>
    <style>
      .cls-1 {
        fill-rule: evenodd;
      }
    </style>
  </defs>
  <path class="cls-1" d="M116,268a41.847,41.847,0,0,0-42,41.6,40.243,40.243,0,0,0,3.673,16.98c10.5,22.759,30.633,46.788,36.555,53.609a2.351,2.351,0,0,0,3.542,0c5.92-6.82,26.052-30.846,36.556-53.609A40.241,40.241,0,0,0,158,309.6,41.851,41.851,0,0,0,116,268Zm0,63.206A21.609,21.609,0,1,1,137.815,309.6,21.739,21.739,0,0,1,116,331.209Z" transform="translate(-74 -268)"/>
</svg>
