<?xml version="1.0" encoding="utf-8"?>
<!-- Generator: Adobe Illustrator 17.0.0, SVG Export Plug-In . SVG Version: 6.00 Build 0)  -->
<!DOCTYPE svg PUBLIC "-//W3C//DTD SVG 1.1//EN" "http://www.w3.org/Graphics/SVG/1.1/DTD/svg11.dtd">
<svg version="1.1" id="Слой_1" xmlns="http://www.w3.org/2000/svg" xmlns:xlink="http://www.w3.org/1999/xlink" x="0px" y="0px"
	 width="283.917px" height="285.201px" viewBox="0 0 283.917 285.201" enable-background="new 0 0 283.917 285.201"
	 xml:space="preserve">
<g>
	<g>
		<path d="M257.649,74.709c-11.024-3.487-23.268-1.173-31.304,4.784c-2.386-5.208-6.655-10.161-15.073-14.986
			c-9.902-5.682-25.013-7.3-37.753-4.49c-3.103-11.157-10.481-20.212-20.835-25.767c-11.651-21.704-32.089-30.334-54.691-23.071
			c-17.573,5.646-31.166,19.349-34.27,33.152c-9.743-3.435-20.432-3.426-30.358,0.176c-14.853,5.4-25.13,16.269-28.187,29.829
			c-3.14,13.899,1.708,28.511,13.289,40.085l2.311,2.298c2.6,2.599,5.839,5.82,6.503,6.675c0.641,0.909,1.51,1.564,2.478,1.957
			c0.182,0.539,0.364,1.077,0.564,1.615c5.2,13.937,20.411,27.628,32.105,32.816c2.059,0.908,4.461,0.52,6.115-0.986
			c1.654-1.504,2.241-3.846,1.479-5.939c-7.075-19.604,3.004-43.286,15.317-59.99c36.069,55.967,36.054,77.387,36.031,122.365
			c0,6.499,0,13.445,0.107,21.022c-46.323,2.8-85.343,14.074-105.106,30.495c-1.806,1.503-2.47,3.957-1.662,6.148
			c0.817,2.189,2.92,3.651,5.285,3.651h247.59c1.67,0,3.256-0.736,4.323-2.004s1.509-2.94,1.204-4.56
			c-3.631-19.346-58.685-29.957-106.448-33.128c3.919-37.532,13.522-70.264,45.196-112.335c3.895,11.866,3.756,31.445-0.411,52.691
			c-0.351,1.799,0.22,3.654,1.524,4.958c1.067,1.063,2.509,1.646,3.995,1.646c0.336,0,0.679-0.032,1.014-0.096
			c8.437-1.529,16.174-5.745,21.998-11.932c17.762-3.993,29.971-15.404,35.335-33.148c1.034-3.433,1.397-6.922,1.123-10.369
			C285.902,96.173,273,79.552,257.649,74.709z M56.564,142.988c-6.715-5.455-13.081-12.861-15.69-19.862
			c-6.617-17.734-0.084-36.413,16.247-46.477c2.638-1.622,3.439-5.048,1.792-7.647c-1.632-2.598-5.107-3.388-7.739-1.769
			c-14.927,9.198-23.467,24.011-24.09,40.007l-0.619-0.616c-8.843-8.841-12.601-19.731-10.315-29.872
			c2.211-9.803,9.904-17.76,21.104-21.826c9.53-3.466,19.991-2.496,28.728,2.683c1.868,1.118,4.2,1.05,6.006-0.138
			c1.807-1.187,2.76-3.298,2.448-5.421c-1.632-11.001,11.009-25.167,27.035-30.313c6.633-2.134,21.277-4.839,33.393,6.974
			c-15.214-1.762-30.344,3.402-39.386,13.89c-2.005,2.333-1.723,5.837,0.642,7.82c2.362,1.979,5.908,1.704,7.928-0.632
			c7.76-9.015,22.026-12.598,35.444-8.908c12.209,3.345,20.605,11.598,23.406,22.844c-4.584,2.327-8.306,5.359-11.074,9.001
			c-1.254-1.34-2.6-2.611-4.046-3.802c-12.329-10.155-29.84-13.246-46.918-8.214c-2.973,0.879-4.666,3.967-3.782,6.904
			c0.893,2.932,3.972,4.626,7,3.732c13.418-3.944,27.066-1.67,36.496,6.101c8.657,7.134,12.74,18.242,11.603,31.369
			c-0.316,0.483-0.628,0.97-0.922,1.471c-1.114,1.892-2.035,3.972-2.795,6.16c-12.108-23.114-39.115-36.809-62.223-38.664
			c-0.017-0.001-0.033,0-0.049-0.001c-0.022-0.002-0.043-0.006-0.065-0.008c-0.1-0.006-0.2,0.001-0.3,0
			c-0.078,0-0.156-0.003-0.233,0c-0.102,0.004-0.204,0.013-0.306,0.023c-0.133,0.011-0.264,0.026-0.394,0.046
			c-0.035,0.006-0.071,0.012-0.106,0.018c-1.482,0.255-2.74,1.054-3.569,2.196C67.23,96.516,54.869,120.295,56.564,142.988z
			 M39.518,265.443c21.112-10.013,52.758-16.786,87.874-18.389c52.628-1.511,108.109,8.277,127.52,18.389H39.518z M155.431,236.239
			c-8.036-0.347-15.713-0.473-22.718-0.383c-0.106-7.426-0.098-14.244-0.098-20.621c0.021-44.699,0.03-68.441-35.173-124.206
			c18.801,5.161,38.168,18.595,44.222,38.187c0.602,1.948,2.192,3.313,4.059,3.761c-0.092,5.383,0.51,10.529,1.653,14.62
			c0.602,2.138,2.44,3.724,4.673,4.016c2.296,0.3,4.43-0.753,5.581-2.66c7.495-12.449,25.281-21.936,41.07-25.441
			C168.761,165.11,159.257,199.256,155.431,236.239z M264.54,135.466c-2.891,9.56-8.134,16.592-15.623,21.06
			c1.482-4.77,2.042-9.823,1.595-14.944c-0.914-10.488-5.909-19.997-14.052-26.759c-0.823-0.69-1.661-1.337-2.523-1.939
			c-2.539-1.789-6.039-1.2-7.838,1.294c-1.807,2.493-1.22,5.96,1.311,7.74c0.603,0.427,1.198,0.888,1.792,1.384
			c5.862,4.867,9.455,11.698,10.11,19.233c0.656,7.534-1.699,14.871-6.632,20.659c-0.004,0.005-0.009,0.009-0.013,0.014
			c-0.007,0.008-0.014,0.015-0.021,0.023c-2.397,2.802-5.311,5.104-8.559,6.79c2.981-20.165,2.356-38.037-1.876-49.982
			c-0.846-2.396-3.202-3.834-5.647-3.694c-0.022-0.786-0.209-1.573-0.574-2.305c-0.945-1.897-2.897-3.098-5.039-3.098
			c-16.819,0.003-39.607,8.33-54.001,21.566c0.175-5.994,1.426-12.234,4.026-16.646c7.936-13.504,29.054-18.588,42.663-14.113
			c2.943,0.978,6.131-0.606,7.114-3.512c0.976-2.909-0.618-6.053-3.56-7.018c-13.221-4.356-31.029-2.198-43.988,6.568
			c-0.666-5.385-2.144-10.404-4.398-14.957c1.977-4.573,5.926-8.058,11.769-10.372c11.909-4.717,27.179-2.869,35.055,1.648
			c10.224,5.862,11.451,10.774,12.602,18.301c0.389,2.535,2.478,4.475,5.063,4.701c2.66,0.23,4.986-1.329,5.817-3.745
			c2.5-7.286,14.943-11.295,25.113-8.08c10.026,3.163,14.889,11.978,14.19,24.935c-7.178-8.163-18.158-13.584-28.203-13.713
			c-0.03-0.004-0.053-0.004-0.077-0.004c-3.072,0-5.58,2.438-5.618,5.48c-0.045,3.064,2.439,5.581,5.543,5.619
			c7.502,0.096,16.216,4.826,21.179,11.497C263.916,122.683,266.661,128.436,264.54,135.466z"/>
	</g>
</g>
</svg>
