<?xml version="1.0" encoding="utf-8"?>
<!-- Generator: Adobe Illustrator 17.0.0, SVG Export Plug-In . SVG Version: 6.00 Build 0)  -->
<!DOCTYPE svg PUBLIC "-//W3C//DTD SVG 1.1//EN" "http://www.w3.org/Graphics/SVG/1.1/DTD/svg11.dtd">
<svg version="1.1" id="Слой_1" xmlns="http://www.w3.org/2000/svg" xmlns:xlink="http://www.w3.org/1999/xlink" x="0px" y="0px"
	 width="283.917px" height="285.201px" viewBox="0 0 283.917 285.201" enable-background="new 0 0 283.917 285.201"
	 xml:space="preserve">
<g>
	<g>
		<path d="M142.056,4.604C65.962,4.604,4.063,66.512,4.063,142.601c0,76.092,61.899,137.996,137.993,137.996
			c76.094,0,137.999-61.904,137.999-137.996C280.055,66.512,218.15,4.604,142.056,4.604z M142.056,269.254
			c-69.834,0-126.657-56.816-126.657-126.653c0-69.837,56.823-126.655,126.657-126.655c69.843,0,126.666,56.819,126.666,126.655
			C268.721,212.438,211.898,269.254,142.056,269.254z M115.81,120.299c3.13,0,5.667-2.542,5.667-5.672V97.389
			c0-3.129-2.537-5.67-5.667-5.67c-3.131,0-5.668,2.541-5.668,5.67v17.238C110.142,117.757,112.679,120.299,115.81,120.299z
			 M164.596,120.299c3.13,0,5.667-2.542,5.667-5.672V97.389c0-3.129-2.537-5.67-5.667-5.67c-3.131,0-5.667,2.541-5.667,5.67v17.238
			C158.929,117.757,161.465,120.299,164.596,120.299z M212.759,145.073c-3.129,0-5.666,2.542-5.666,5.674
			c0,31.247-29.178,56.669-65.037,56.669c-35.859,0-65.036-25.421-65.036-56.669c0-3.132-2.537-5.674-5.667-5.674
			c-3.131,0-5.667,2.542-5.667,5.674c0,37.503,34.258,68.009,76.37,68.009c42.112,0,76.371-30.506,76.371-68.009
			C218.427,147.616,215.89,145.073,212.759,145.073z"/>
	</g>
</g>
</svg>
