<?xml version="1.0" encoding="utf-8"?>
<!-- Generator: Adobe Illustrator 17.0.0, SVG Export Plug-In . SVG Version: 6.00 Build 0)  -->
<!DOCTYPE svg PUBLIC "-//W3C//DTD SVG 1.1//EN" "http://www.w3.org/Graphics/SVG/1.1/DTD/svg11.dtd">
<svg version="1.1" id="Слой_1" xmlns="http://www.w3.org/2000/svg" xmlns:xlink="http://www.w3.org/1999/xlink" x="0px" y="0px"
	 width="283.917px" height="285.201px" viewBox="0 0 283.917 285.201" enable-background="new 0 0 283.917 285.201"
	 xml:space="preserve">
<g>
	<g>
		<path d="M277.911,226.447l-19.003-19l18.149-18.149c1.089-1.083,1.692-2.55,1.692-4.081c0-1.531-0.603-3-1.692-4.083
			l-20.187-20.184l16.61-16.609c1.088-1.082,1.691-2.549,1.691-4.081c0-1.531-0.603-2.998-1.691-4.083l-23.087-23.082
			c-2.255-2.254-5.902-2.254-8.156,0l-49.534,49.533l-70.095-70.099l49.526-49.522c2.253-2.255,2.253-5.911,0-8.16L149.056,11.76
			c-1.08-1.083-2.543-1.695-4.078-1.695s-2.999,0.612-4.079,1.691L124.285,28.37l-20.187-20.19c-1.08-1.082-2.543-1.692-4.078-1.692
			s-2.999,0.61-4.078,1.692L77.787,26.333L58.779,7.33c-2.254-2.256-5.903-2.256-8.158,0L6.165,51.788
			c-2.255,2.256-2.255,5.911,0,8.166l18.998,19L7.018,97.098c-2.255,2.255-2.255,5.911,0,8.166l20.184,20.187l-16.605,16.605
			c-2.256,2.255-2.256,5.91,0,8.164l23.077,23.082c1.081,1.082,2.544,1.691,4.079,1.691c1.534,0,2.999-0.609,4.079-1.691
			l49.532-49.528l70.102,70.094l-49.53,49.529c-1.089,1.083-1.692,2.55-1.692,4.081c0,1.531,0.603,2.999,1.692,4.085l23.086,23.08
			c1.127,1.127,2.598,1.69,4.079,1.69c1.479,0,2.951-0.564,4.077-1.69l16.611-16.61l20.191,20.188
			c1.127,1.127,2.599,1.691,4.079,1.691c1.479,0,2.951-0.565,4.078-1.691l18.148-18.148l19.005,19.005
			c1.127,1.128,2.599,1.691,4.079,1.691c1.479,0,2.951-0.563,4.078-1.691l44.465-44.464c1.087-1.083,1.691-2.549,1.691-4.081
			C279.603,228.999,278.999,227.532,277.911,226.447z M54.701,19.573l14.921,14.92L33.321,70.792l-14.913-14.92L54.701,19.573z
			 M100.02,20.422l14.912,14.92l-80.757,80.759l-14.914-14.92L100.02,20.422z M37.752,161.058l-14.913-14.92L144.978,24.004
			l14.913,14.919L37.752,161.058z M100.23,116.315l14.922-14.924l69.391,69.397l-14.918,14.918L100.23,116.315z M139.099,262.399
			l-14.921-14.922l48.766-48.765c0.297-0.202,0.577-0.431,0.834-0.688l23.078-23.081c0.244-0.243,0.448-0.51,0.639-0.783
			l48.821-48.821l14.92,14.92L139.099,262.399z M184.057,265.976l-14.921-14.922l80.757-80.759l14.921,14.922l-29.379,29.379
			l-33.233,33.23c-0.007,0.007-0.011,0.015-0.017,0.021L184.057,265.976z M229.368,266.835l-14.921-14.926l36.3-36.298l14.92,14.92
			L229.368,266.835z"/>
	</g>
</g>
</svg>
